<svg xmlns="http://www.w3.org/2000/svg" data-name="Layer 1" viewBox="0 0 100 125" x="0px" y="0px"><title>travel - vacation - holiday - summer_5</title><path d="M77.72,59.13h-.63a27.38,27.38,0,0,0-1-5.62,23.17,23.17,0,0,0-17.62-16v-4a4.63,4.63,0,0,0-4.62-4.63H46.16a4.63,4.63,0,0,0-4.62,4.63v4a22.82,22.82,0,0,0-17.31,15,27.09,27.09,0,0,0-1.32,6.62h-.63A4.28,4.28,0,0,0,18,63.41v3.47a4.29,4.29,0,0,0,4.28,4.29H77.72A4.29,4.29,0,0,0,82,66.88V63.41A4.28,4.28,0,0,0,77.72,59.13ZM45.54,33.46a.63.63,0,0,1,.62-.63h7.68a.63.63,0,0,1,.62.63V37H45.54ZM28,53.78A19,19,0,0,1,46.26,41h7.46A19.27,19.27,0,0,1,72.24,54.63a22.76,22.76,0,0,1,.84,4.5H26.92A23.12,23.12,0,0,1,28,53.78Zm50,13.1a.29.29,0,0,1-.28.29H22.28a.29.29,0,0,1-.28-.29V63.41a.28.28,0,0,1,.28-.28H77.72a.28.28,0,0,1,.28.28Z"/><text x="0" y="115" fill="#000000" font-size="5px" font-weight="bold" font-family="'Helvetica Neue', Helvetica, Arial-Unicode, Arial, Sans-serif">Created by Mello</text><text x="0" y="120" fill="#000000" font-size="5px" font-weight="bold" font-family="'Helvetica Neue', Helvetica, Arial-Unicode, Arial, Sans-serif">from the Noun Project</text></svg>