<?xml version="1.0" encoding="utf-8"?>
<!-- Generator: Adobe Illustrator 22.1.0, SVG Export Plug-In . SVG Version: 6.00 Build 0)  -->
<svg version="1.1" id="Layer_1" xmlns="http://www.w3.org/2000/svg" xmlns:xlink="http://www.w3.org/1999/xlink" x="0px" y="0px"
	 viewBox="0 0 100 125" style="enable-background:new 0 0 100 125;" xml:space="preserve">
<title>travel - vacation - holiday - summer_5</title>
<path d="M77.7,59.1h-0.6c-0.1-1.9-0.5-3.8-1-5.6c-2.5-8.2-9.2-14.3-17.6-16v-4c0-2.6-2.1-4.6-4.6-4.6h-7.7c-2.6,0-4.6,2.1-4.6,4.6v4
	c-8,1.5-14.6,7.3-17.3,15c-0.7,2.1-1.2,4.4-1.3,6.6h-0.6c-2.4,0-4.3,1.9-4.3,4.3l0,0v3.5c0,2.4,1.9,4.3,4.3,4.3h55.4
	c2.4,0,4.3-1.9,4.3-4.3v-3.5C82,61,80.1,59.1,77.7,59.1z M45.5,33.5c0-0.3,0.3-0.6,0.6-0.6h7.7c0.3,0,0.6,0.3,0.6,0.6V37h-8.9V33.5z
	 M28,53.8C30.7,46,38.1,40.9,46.3,41h7.5c8.5,0,16,5.5,18.5,13.6c0.4,1.5,0.7,3,0.8,4.5H26.9C27.1,57.3,27.4,55.5,28,53.8z M78,66.9
	c0,0.2-0.1,0.3-0.3,0.3H22.3c-0.2,0-0.3-0.1-0.3-0.3v-3.5c0-0.2,0.1-0.3,0.3-0.3h55.4c0.2,0,0.3,0.1,0.3,0.3V66.9z"/>
</svg>
