<?xml version="1.0" encoding="utf-8"?>
<!-- Generator: Adobe Illustrator 22.1.0, SVG Export Plug-In . SVG Version: 6.00 Build 0)  -->
<svg version="1.1" id="Capa_1" xmlns="http://www.w3.org/2000/svg" xmlns:xlink="http://www.w3.org/1999/xlink" x="0px" y="0px"
	 viewBox="0 0 978.5 978.5" style="enable-background:new 0 0 978.5 978.5;" xml:space="preserve">
<style type="text/css">
	.st0{fill:#FF6C6C;}
</style>
<g>
	<g>
		<path class="st0" d="M463.1,286.1c9.2,7.2,19.8,14.6,27.6,23.3c0.4-0.4,0.8-0.8,1.2-1.2c7.7-8.2,17.7-15.3,26.5-22.1
			c36.3-28.4,77.1-51.2,109.5-84.4c28.6-29.2,50.9-68.9,47.6-111c-0.1-1.6-0.3-3.1-0.5-4.7c-6.5-50.9-54.6-86-103.8-86
			c-9.3,0-18.6,1.3-27.7,3.9c-21.3,6.2-39.3,19.6-52.8,36.8c-13.5-17.2-31.5-30.6-52.8-36.8C428.8,1.3,419.5,0,410.2,0
			c-49.1,0-97.3,35-103.8,86c-0.2,1.5-0.4,3.1-0.5,4.7c-3.3,42.1,19,81.8,47.6,111C386,234.9,426.8,257.7,463.1,286.1z"/>
		<path d="M54.5,940.4l114.6,36.7c16.1,5.1,33.2-3.7,38.4-19.8l0,0c5.1-16.1-3.7-33.2-19.8-38.4l-26.2-8.4l47.8-146.9
			c-10.3-1.8-20.5-4.3-30.5-7.5c-10.9-3.5-21.3-7.7-31.3-12.7L99.6,890.6l-26.5-8.5c-16.1-5.1-33.2,3.7-38.4,19.8l0,0
			C29.6,918,38.4,935.2,54.5,940.4z"/>
		<path d="M156.9,714.6c26.3,13.8,60.9,22.3,90.7,22.3c58.7,0,115.5-27.5,152.1-73.5c33.3-41.9,43.8-95.9,52.8-147.4
			c4.7-27.1,20.8-142.5,21.4-152.7c0.5-8.4,1.3-19.4-3-26.9c-3.7-6.7-10-11.8-17.3-14.1l-246.5-78.9c-3.1-1-6.2-1.5-9.3-1.5
			c-10.9,0-21.2,5.8-26.7,15.7c-31.4,56.5-62.6,113.6-88.8,172.7c-14.4,32.2-27.5,65.3-29.4,100.8c-1.7,29.8,3.7,59.9,15.4,87.3
			C85.8,659.5,117.3,693.9,156.9,714.6z M212.3,309.2L411,372.8c-9.8,82.6-19.7,145-28.9,183.2l-95.4-30.5l-61.9-19.8l-95.4-30.5
			C144.2,438.6,172.3,382.2,212.3,309.2z"/>
		<g>
			<path d="M905.4,882.2l-26.5,8.5L831,743.5c-10,4.9-20.4,9.2-31.3,12.7c-10,3.2-20.2,5.7-30.5,7.5L817,910.5l-26.2,8.4
				c-16.1,5.1-24.9,22.3-19.8,38.4l0,0c5.1,16.1,22.3,24.9,38.4,19.8L924,940.4c16.1-5.1,24.9-22.3,19.8-38.4l0,0
				C938.7,885.9,921.5,877.1,905.4,882.2z"/>
			<path d="M504.4,345c-0.7,3.1-0.9,6.4-0.5,9.8c0.1,1.2,15.4,131.8,28.5,194.8c7,33.9,15.8,67.8,34.6,97.3
				c15.9,24.9,37.4,46,62.6,61.3c30.4,18.6,65.7,28.6,101.3,28.6c20.2,0,40.4-3.2,59.6-9.3c10.9-3.5,21.2-7.8,31-13
				c52.8-27.6,90.6-79.5,101.2-138c11.3-62.3-13.8-120.6-40.1-175.5c-23.4-48.7-49.1-96.2-75.3-143.4c-5.5-9.9-15.8-15.7-26.7-15.7
				c-3.1,0-6.2,0.5-9.3,1.5l-246.5,78.9C514.3,325.7,506.7,334.5,504.4,345z M766.2,309.2c40,73,68.2,129.4,82.9,165.9l-95.4,30.5
				l-61.9,19.8l-95.4,30.5c-9.2-38.2-19.1-100.5-28.9-183.2L766.2,309.2z"/>
		</g>
	</g>
</g>
</svg>
